<svg xmlns="http://www.w3.org/2000/svg" viewBox="0 0 32 32">
<path d="M22.909 22.044H12.456l-.222-.947h11.847L26 12.346l-15.652-1.964L9.631 6H6v1.655h2.298l.412 2.52-.033-.003 1.89 10.925h.04l.23.984c-1.12.196-1.977 1.215-1.977 2.441C8.86 25.89 9.922 27 11.227 27s2.367-1.111 2.367-2.478c0-.288-.05-.565-.137-.822h7.222a2.57 2.57 0 00-.137.822c0 1.367 1.062 2.478 2.366 2.478 1.306 0 2.367-1.111 2.367-2.478.001-1.366-1.06-2.477-2.366-2.477zm-12.282-9.96l13.438 1.686-1.243 5.671H11.887L10.842 13.4l-.215-1.316zm.6 13.26c-.433 0-.785-.369-.785-.822 0-.453.352-.822.785-.822.433 0 .786.369.786.822 0 .454-.353.823-.786.823zm11.682 0c-.433 0-.785-.368-.785-.822 0-.453.352-.822.785-.822.434 0 .786.37.786.822 0 .454-.352.823-.786.823z"/>
</svg>