<?xml version="1.0" encoding="UTF-8"?><svg id="Layer_2" xmlns="http://www.w3.org/2000/svg" viewBox="0 0 307.39 116.85"><defs><style>.cls-1{fill:#f47920;}.cls-2{fill:#034ea2;}.cls-3{fill:#05509f;}.cls-4{fill:#fff;}</style></defs><g id="Layer_1-2"><g><g><path class="cls-2" d="m231.5,32.29c0-8.01-5.59-14.49-13.86-14.49s-13.98,6.48-13.98,14.49,5.59,14.87,13.98,14.87,13.86-6.61,13.86-14.87m19.45-.13c0,18.82-13.98,32.8-33.43,32.8s-33.43-13.98-33.43-32.8S198.07,0,217.52,0s33.43,13.6,33.43,32.16"/><path class="cls-1" d="m47.93,32.42c0-8.52-6.1-15.38-14.49-15.38-4.58,0-9.03,1.4-12.84,5.85v19.07c3.81,4.45,8.26,5.72,12.84,5.72,8.39,0,14.49-6.74,14.49-15.25m20.21,0c0,18.31-13.98,32.16-30.64,32.16-6.74,0-12.33-1.78-16.91-4.7v35.64H0V1.65h20.59v3.31C25.17,2.03,30.76.25,37.5.25c16.65,0,30.64,13.73,30.64,32.16"/><path class="cls-2" d="m114.92,20.21c-10.04.38-16.4,3.05-21.23,7.88v35.21h-20.59V1.65h20.59v6.61c5.47-4.7,12.08-7.63,21.23-7.63v19.58Z"/><path class="cls-2" d="m136.17,26.44h25.17c-1.14-6.74-5.59-10.3-12.2-10.3-6.99,0-11.44,4.07-12.96,10.3m44.11,11.69l.13.38h-43.99c1.65,5.59,5.98,9.91,13.86,9.91,4.32,0,7.63-1.65,9.41-4.45h20.34c-2.92,12.71-14.75,20.72-30,20.72-20.21,0-33.69-13.48-33.69-32.29S129.43.25,149.13.25c17.92,0,31.53,12.33,31.53,30.89,0,2.29,0,4.7-.38,6.99"/></g><g><path class="cls-2" d="m193.39,98.63c1.03,1.11,1.55,2.53,1.55,4.32v6.8h-3.59v-6.49c0-1.96-.96-3.02-2.64-3.02-.9,0-1.68.47-2.33,1.37.08.59.1,1.03.1,1.34v6.8h-3.59v-6.49c0-1.96-.93-3.02-2.66-3.02-.78,0-1.5.47-2.2,1.4v8.11h-3.59v-12.38h3.59v.75c.8-.75,1.84-1.14,3.05-1.14,1.63,0,2.95.59,3.95,1.76,1.34-1.24,2.61-1.76,4.5-1.76,1.52,0,2.82.54,3.85,1.65Z"/><path class="cls-2" d="m210.7,109.75h-3.59v-.72c-1.01.65-2.2.98-3.52.98-1.71,0-3.15-.62-4.37-1.86-1.21-1.27-1.81-2.79-1.81-4.57s.59-3.33,1.81-4.57c1.21-1.27,2.66-1.89,4.37-1.89,1.32,0,2.51.34,3.52.98v-.72h3.59v12.38Zm-3.59-4.21v-3.95c-.7-.96-1.68-1.45-2.92-1.45-.93,0-1.71.34-2.3,1.01-.59.67-.9,1.47-.9,2.43s.31,1.73.9,2.4c.59.65,1.37.98,2.3.98,1.21,0,2.2-.47,2.92-1.42Z"/><path class="cls-2" d="m217.45,98.76c1.16-1.06,2.61-1.6,4.34-1.6v3.41c-1.89.08-3.33.67-4.34,1.78v7.39h-3.59v-12.38h3.59v1.4Z"/><path class="cls-2" d="m227.71,107.19v2.56h-3.59v-18.35h3.59v11.11l4.78-5.14h4.47l-4.81,5.12,5.35,7.26h-4.52l-3.28-4.65-1.99,2.09Z"/><path class="cls-2" d="m250.99,109.75h-3.59v-.72c-1.01.65-2.2.98-3.52.98-1.71,0-3.15-.62-4.37-1.86-1.21-1.27-1.81-2.79-1.81-4.57s.59-3.33,1.81-4.57c1.21-1.27,2.66-1.89,4.37-1.89,1.32,0,2.51.34,3.52.98v-.72h3.59v12.38Zm-3.59-4.21v-3.95c-.7-.96-1.68-1.45-2.92-1.45-.93,0-1.71.34-2.3,1.01-.59.67-.9,1.47-.9,2.43s.31,1.73.9,2.4c.59.65,1.37.98,2.3.98,1.21,0,2.2-.47,2.92-1.42Z"/><path class="cls-2" d="m256.57,105.48c.18,1.21,1.06,1.84,2.58,1.84,1.24,0,2.09-.41,2.09-1.06,0-.54-.41-.9-1.24-1.03l-2.64-.44c-2.14-.36-3.64-1.52-3.64-3.67,0-2.51,2.14-4.08,5.35-4.08,1.22,0,2.27.23,3.44.8,1.16.57,1.99,1.76,2.12,3.41l-3.28.03c-.08-1.06-1.01-1.55-2.27-1.55-1.16,0-1.83.44-1.83,1.06s.49,1.01,1.47,1.16l2.25.36c2.51.41,3.75,1.65,3.75,3.64,0,2.69-2.27,4.19-5.58,4.19-1.6,0-2.95-.36-4.03-1.11-1.09-.75-1.68-1.94-1.81-3.57l3.28.03Z"/><path class="cls-2" d="m270.99,109.75h-3.59v-12.38h3.59v12.38Z"/><path class="cls-2" d="m285.41,109.75h-3.59v-.72c-1.01.65-2.2.98-3.52.98-1.71,0-3.15-.62-4.37-1.86-1.21-1.27-1.81-2.79-1.81-4.6s.59-3.31,1.81-4.55c1.21-1.27,2.66-1.89,4.37-1.89,1.32,0,2.51.34,3.52.98v-6.69h3.59v18.35Zm-3.59-4.21v-3.95c-.72-.96-1.71-1.42-2.92-1.42-.93,0-1.71.34-2.3,1.01-.59.65-.9,1.45-.9,2.38s.31,1.76.9,2.43c.59.67,1.37,1.01,2.3,1.01,1.24,0,2.22-.49,2.92-1.45Z"/><path class="cls-2" d="m292.29,109.75h-3.59v-12.38h3.59v12.38Z"/><path class="cls-2" d="m299.11,98.76c1.16-1.06,2.61-1.6,4.34-1.6v3.41c-1.89.08-3.33.67-4.34,1.78v7.39h-3.59v-12.38h3.59v1.4Z"/><path class="cls-2" d="m303.45,107.84c0-1.05.88-1.89,1.96-1.89s1.98.81,1.98,1.89-.86,1.91-1.98,1.91-1.96-.84-1.96-1.91Z"/></g><g><path class="cls-1" d="m41.19,94.81c0-6.08,4.91-11.02,10.97-11.02h109.11v22.03c0,6.09-4.91,11.02-10.97,11.02H41.19v-22.04Z"/><path class="cls-1" d="m41.19,94.81c0-6.08,4.91-11.02,10.97-11.02h109.11v22.03c0,6.09-4.91,11.02-10.97,11.02H41.19v-22.04Z"/><path class="cls-3" d="m115.69,100.32c0-5.01,4.4-9.07,9.82-9.07s9.82,4.06,9.82,9.07-4.4,9.07-9.82,9.07-9.82-4.06-9.82-9.07"/><path class="cls-3" d="m134.76,100.32c0-5.01,4.4-9.07,9.82-9.07s9.82,4.06,9.82,9.07-4.4,9.07-9.82,9.07-9.82-4.06-9.82-9.07"/><path class="cls-4" d="m119,101.83v.59c0,2.26,1.32,2.5,3.38,2.62.73.04,1.47.04,2.19.04,1.4,0,2.78-.03,4.19-.1,2.48-.18,3.64-.62,3.64-3.06,0-2.57-1.46-3.02-3.96-3.02-.72,0-1.43-.02-2.16-.02l-2.19-.03c-.74-.03-1.87.07-1.87-.89,0-.6.61-.71,1.19-.74.84-.03,1.66-.07,2.5-.07.51,0,1.05,0,1.58.02.73.03,1.21.19,1.26.94h3.2c-.02-.63,0-1.31-.36-1.89-.77-1.17-2.25-1.19-3.57-1.2l-2.29-.03c-1.24,0-3.67.02-4.82.3-1.71.4-2,1.42-2,2.89,0,1.86.64,2.74,2.75,2.87,1.79.1,3.59.1,5.38.1h.53c.71,0,1.51.08,1.51.88,0,.85-.72.83-1.45.86-.74.04-1.46.06-2.19.06-.52,0-1.03-.02-1.55-.02-.74-.03-1.67-.02-1.67-.92,0-.06,0-.11-.02-.17h-3.22Z"/><path class="cls-4" d="m147.05,101.15h-4.61l2.3-3.93,2.3,3.93Zm1.19,2.05l1.02,1.8h3.61l-5.86-9.92h-4.41l-5.99,9.92h3.64l1.06-1.8h6.94Z"/><polygon class="cls-4" points="46.56 97.7 51.02 97.7 51.02 104.89 54.19 104.89 54.19 97.7 58.65 97.7 58.65 95.33 46.56 95.33 46.56 97.7"/><polygon class="cls-4" points="59.03 104.89 70.54 104.89 70.54 102.59 62.2 102.59 62.2 101.06 69.92 101.06 69.92 99.08 62.2 99.08 62.2 97.55 70.35 97.55 70.35 95.33 59.03 95.33 59.03 104.89"/><polygon class="cls-4" points="71.45 104.89 74.63 104.89 74.63 101.22 76.03 101.22 80.6 104.89 85.09 104.89 78.83 100 84.43 95.33 80.11 95.33 76.11 98.84 74.63 98.84 74.63 95.33 71.45 95.33 71.45 104.89"/><polygon class="cls-4" points="85.27 104.89 88.44 104.89 88.44 97.94 88.47 97.94 94.43 104.89 99.35 104.89 99.35 95.33 96.18 95.33 96.18 102.27 96.15 102.27 90.19 95.33 85.27 95.33 85.27 104.89"/><path class="cls-4" d="m103.52,99.59c0-1.19.31-1.91,1.99-1.91h3.72c1.67,0,1.99.72,1.99,1.91v1.03c0,1.39-.31,1.92-1.82,1.92h-4.06c-1.5,0-1.81-.53-1.81-1.92v-1.03Zm-3.26,1.94c0,2.8,1.7,3.46,4.56,3.46h5.09c2.86,0,4.56-.66,4.56-3.46v-2.85c0-2.8-1.7-3.46-4.56-3.46h-5.09c-2.86,0-4.56.66-4.56,3.46v2.85Z"/></g></g></g></svg>