<svg width="74" height="31" fill="none" xmlns="http://www.w3.org/2000/svg"><path d="M7.326 13.02h66.421v11.312l-.01.044a9.434 9.434 0 01-.27.92c-.208.601-.548 1.4-1.073 2.202-1.047 1.6-2.82 3.195-5.76 3.252H.25V17.596a7.391 7.391 0 011.421-2.265c1.066-1.152 2.834-2.312 5.655-2.312z" fill="#024D9E" stroke="#fff" stroke-width=".5"/><path d="M1.305 16.797A7.88 7.88 0 00.25 18.23V5.49a2.844 2.844 0 01.042-.201 7.84 7.84 0 011.017-2.42C2.154 1.555 3.622.25 6.153.25H73.75v14.082H7.326c-2.979 0-4.874 1.228-6.021 2.465z" fill="#EF7C01" stroke="#fff" stroke-width=".5"/><path d="M4.889 2.832v2.234h3.955v6.81h3.132v-6.81h4.065V2.832H4.889zm12.142 0v9.045h10.164V9.915h-7.362V8.498h7.362V6.483h-7.307V5.011h7.307V2.832H17.03zm11.592.001h2.856v3.27h1.923l3.448-3.42h3.75L35.853 7.39l5.625 4.488H37l-3.61-3.583h-1.855v3.582h-2.911V2.833zM42.3 2.832v9.045h2.858v-6.92l5.164 6.92h4.944V2.832H52.3v6.81l-5.055-6.81h-4.944zm14.451 2.017s.385-2.165 2.692-2.165h7.581s2.527.258 2.582 2.492c.055 2.234 0 4.903 0 4.903s-.824 2.124-2.966 2.124h-6.978s-2.994-.271-2.994-2.968.083-4.386.083-4.386z" fill="#fff"/><path d="M59.652 6.379s.009-1.449 1.407-1.449c1.398 0 3.359-.04 4.477 0 .478.018 1.1.082 1.1 1.554V8.39s-.055 1.335-1.346 1.335c-1.292 0-3.286.142-4.368 0-.428-.056-1.222-.327-1.222-1.212s-.048-2.134-.048-2.134z" fill="#EF7C01"/><path d="M21.388 20.738l2.82-1.5s-3.204-5.553-9.1-2.4c-1.077.577-4.84 4.136-2.112 8.656 3.073 5.092 9.504 2.97 11.078-.15l-2.814-1.551s-1.822 3.311-4.78.651c-2.47-2.22.223-5.811 2.683-5.395 1.9.321 2.225 1.689 2.225 1.689zm5.012-4.455h3.233v9.233h4.72v2.778H26.4v-12.01zm13.902 0s-.076 5.18.086 6.988c.074.832.301 2.437 2.478 2.437s2.295-1.478 2.35-2.265c.127-1.85.107-7.16.107-7.16h3.233v7.78c0 1.775-1.121 4.494-5.539 4.494-5.55 0-6.017-3.254-6.017-4.258v-8.015h3.302zm11.508 0v12.01h8.13c.45 0 2.5-.192 2.5-3.141 0-2.95-2.027-3.014-2.027-3.014s1.897-.299 1.897-3.163c0-2.372-2.593-2.719-3.75-2.692-1.69.038-6.75 0-6.75 0z" fill="#fff"/><path d="M58.255 20.952h-3.224V18.95h3.05s.874.039.874 1.136c0 .829-.7.867-.7.867zm0 4.585h-3.224v-2.004h3.05s.874.04.874 1.137c0 .826-.7.867-.7.867z" fill="#024D9E"/></svg>