<svg xmlns="http://www.w3.org/2000/svg" width="86" height="42" fill="none">
    <path xmlns="http://www.w3.org/2000/svg" fill-rule="evenodd" clip-rule="evenodd" d="M0 3.229h5.647v9.339h4.017V3.229h5.648V.137H0v3.092zm68.011 1.27C68.011.856 70.166 0 73.785 0h6.442C83.847 0 86 .857 86 4.498v3.71c0 3.639-2.152 4.496-5.773 4.496h-6.442c-3.619 0-5.773-.857-5.773-4.495v-3.71zm4.127 2.522c0 1.805.396 2.492 2.298 2.492h5.14c1.9 0 2.298-.687 2.298-2.492V5.683c0-1.546-.398-2.488-2.516-2.488h-4.705c-2.119 0-2.515.942-2.515 2.488v1.338zm-23.11 5.547h4.017V3.537h.036l7.546 9.03h6.228V.138h-4.02V9.17H62.8L55.255.137h-6.227v12.43zm-17.5 0h4.019V7.796h1.773l5.79 4.772h5.683l-7.925-6.354L47.96.137h-5.464L37.43 4.705h-1.883V.137H31.53v12.43zM15.8.137h14.332v2.885H19.817v1.992h9.774v2.574h-9.774v1.994h10.55v2.986H15.799V.137z" fill="#F37820"/>
    <path xmlns="http://www.w3.org/2000/svg" fill-rule="evenodd" clip-rule="evenodd" d="M6.547 17.48h3.005v3.587h6.336V17.48h3.006v10.066h-3.006v-3.81H9.552v3.81H6.547V17.48zm14.743-1.53h2.6v-2.085h-2.6v2.085zm-.203 11.595h3.005V17.48h-3.005v10.065zm4.724-2.419l7.027-5.2V19.9h-6.837v-2.42h11.278v2.42l-7.014 5.2v.027h7.176v2.42h-11.63v-2.42zm13.187-7.646h4.616l3.398 6.479 3.399-6.479h4.616v10.066h-2.924v-7.23h-.027l-3.94 7.23H45.89l-3.94-7.23h-.027v7.23h-2.924V17.48zm18.06 0H67.78v2.335h-7.717v1.613h7.311v2.086h-7.31v1.612h7.892v2.42H57.058V17.48zm11.994 0h11.454v2.502h-4.224v7.564h-3.005v-7.564h-4.225V17.48zM21.46 33.813l1.47 1.505 1.898-1.948c4.884 5.497 11.848 8.63 19.3 8.63h.094c7.874-.027 15.196-3.544 20.082-9.649a1.086 1.086 0 00-.141-1.5 1.025 1.025 0 00-1.465.145c-4.49 5.614-11.231 8.843-18.48 8.87h-.09c-7.218 0-13.938-3.181-18.453-8.737a1.015 1.015 0 00-1.46-.139.411.411 0 00-.068.07c-.006 0-.016.005-.021.016l-2.666 2.737z" fill="#044DA1"/>
    <path xmlns="http://www.w3.org/2000/svg" fill-rule="evenodd" clip-rule="evenodd" d="M24.126 31.076c.005-.011.015-.016.02-.016l-.005-.006-.015.022z" fill="#044DA1"/>
</svg>